<svg width="512" height="512" viewBox="0 0 512 512" fill="none" xmlns="http://www.w3.org/2000/svg">
<path d="M512 105.096V406.904C512 464.947 463.144 512 402.868 512H109.132C48.8559 512 0 464.947 0 406.904V105.096C0 47.0528 48.8559 0 109.132 0H402.911C463.144 0 512 47.0528 512 105.096Z" fill="#0976FF"/>
<path d="M371.657 329.198H211.737C172.326 329.198 140.342 361.139 140.342 400.593V404.886H300.262C339.673 404.886 371.657 372.945 371.657 333.491V329.198Z" fill="white"/>
<path d="M418.753 217.405H163.826C124.844 217.405 93.2466 249.003 93.2466 287.984V293.093H348.173C387.155 293.093 418.753 261.496 418.753 222.514V217.405V217.405Z" fill="white"/>
<path d="M418.753 105.611H163.826C124.844 105.611 93.2467 137.209 93.2467 176.191V181.299H348.173C387.155 181.299 418.753 149.702 418.753 110.72V105.611V105.611Z" fill="white"/>
</svg>
