<svg width="116" height="62" viewBox="0 0 116 62" fill="currentColor" xmlns="http://www.w3.org/2000/svg">
<path d="M115.284 15.712C115.285 27.3094 115.294 38.8026 115.282 50.2958C115.276 56.9137 110.461 61.7824 103.87 61.7858C73.5575 61.801 43.2447 61.7955 12.9318 61.7947C11.0834 61.7946 10.0179 61.0407 9.76899 59.5905C9.50321 58.0423 10.4005 56.7416 11.9559 56.4964C12.5339 56.4052 13.1313 56.4169 13.7199 56.4168C43.512 56.4136 73.304 56.415 103.096 56.4094C103.873 56.4092 104.649 56.3374 105.396 56.3004C98.1674 49.0289 91.0174 41.8362 83.6973 34.4724C83.101 35.1159 82.4213 35.8834 81.7038 36.6138C80.9994 37.3308 80.3033 38.0683 79.5219 38.695C77.3246 40.4571 75.23 40.4783 73.1312 38.6082C71.2426 36.9254 69.4937 35.0847 67.7002 33.2965C64.4561 30.0621 61.2128 26.8267 57.9921 23.5691C55.6217 21.1715 52.7895 19.9874 49.4058 20.0005C41.5238 20.0309 33.6417 20.0152 25.7597 20.0055C23.8456 20.0031 22.7258 18.9219 22.8666 17.2747C22.9651 16.1217 23.8638 15.1134 25.0191 15.1122C33.8724 15.1027 42.7294 14.9936 51.5775 15.2189C55.4477 15.3175 58.7149 17.2855 61.4547 20.0514C66.0479 24.6883 70.6637 29.3029 75.2775 33.9194C76.3734 35.0159 76.3855 35.0007 77.4555 33.9241C86.5085 24.8141 95.5625 15.7051 104.614 6.59387C104.877 6.32981 105.118 6.04466 105.569 5.54925C104.933 5.49134 104.547 5.42889 104.161 5.42587C102.599 5.41365 101.036 5.41913 99.4735 5.41913C70.8621 5.41898 42.2506 5.41673 13.6391 5.42627C12.3454 5.42671 11.2071 5.18675 10.5609 3.93161C9.75086 2.35838 10.6217 0.488402 12.3453 0.0935653C12.7123 0.00950707 13.1028 0.0028525 13.4824 0.00281437C43.587 -0.000342828 73.6915 -0.00224738 103.796 0.00496049C107.83 0.00592691 111.052 1.64643 113.373 4.9602C114.641 6.77076 115.26 8.81109 115.278 11.0245C115.29 12.5522 115.283 14.08 115.284 15.712ZM90.1422 33.619C96.5339 39.9944 102.926 46.3698 109.317 52.7452C109.419 52.7033 109.522 52.6614 109.624 52.6195C109.732 51.8796 109.933 51.1398 109.934 50.3997C109.952 37.3462 109.952 24.2927 109.925 11.2393C109.923 10.4792 109.665 9.71965 109.554 9.11491C102.172 16.3987 94.8475 23.6258 87.3453 31.0283C88.264 31.8767 89.151 32.6957 90.1422 33.619Z" fill="currentColor"/>
<path d="M13.9705 28.2001C26.2278 28.2005 38.3809 28.1989 50.534 28.2038C52.2281 28.2045 53.0151 28.6754 53.4266 29.8769C53.8997 31.2586 53.1397 32.6887 51.7237 33.031C51.3582 33.1193 50.9684 33.1373 50.5898 33.1374C34.7561 33.1408 18.9224 33.1436 3.08869 33.119C2.41954 33.1179 1.68556 32.9833 1.09682 32.6843C0.163277 32.2103 -0.197859 30.9992 0.104376 29.9678C0.430476 28.8549 1.26494 28.2117 2.51192 28.2064C6.29668 28.1904 10.0815 28.2003 13.9705 28.2001Z" fill="currentColor"/>
<path d="M47.1001 46.315C39.8863 46.3151 32.7767 46.3156 25.6671 46.3148C23.9238 46.3145 22.7665 45.3606 22.7445 43.9118C22.7211 42.3657 23.847 41.3657 25.6326 41.3654C34.0254 41.3636 42.4182 41.3596 50.811 41.3712C52.9415 41.3742 54.1734 43.1399 53.3121 44.9212C52.8611 45.8539 52.076 46.3026 51.0539 46.3144C49.7709 46.3292 48.4875 46.3161 47.1001 46.315Z" fill="currentColor"/>
</svg>
